<?xml version="1.0" standalone="no"?>
<!DOCTYPE svg PUBLIC "-//W3C//DTD SVG 20010904//EN"
 "http://www.w3.org/TR/2001/REC-SVG-20010904/DTD/svg10.dtd">
<svg version="1.0" xmlns="http://www.w3.org/2000/svg"
 width="75pt" height="75pt" viewBox="0 0 300.000000 282.000000"
 preserveAspectRatio="xMidYMid meet">
<metadata>
Created by potrace 1.10, written by Peter Selinger 2001-2011
</metadata>
<g transform="translate(0.000000,282.000000) scale(0.100000,-0.100000)"
fill="#FFFFFF" stroke="none">
<path d="M1340 2798 c0 -7 4 -20 9 -28 15 -22 3 -29 -32 -19 -17 5 -80 10
-138 11 -94 1 -116 -3 -202 -31 -53 -18 -99 -36 -102 -41 -3 -4 24 -11 60 -15
36 -3 65 -10 65 -15 0 -4 -30 -13 -66 -19 -103 -18 -261 -102 -318 -168 -21
-24 -24 -24 -64 -13 -33 11 -44 10 -57 0 -24 -20 -18 -26 36 -38 78 -18 94
-15 186 33 47 25 92 45 100 45 29 0 -6 -28 -94 -76 -83 -45 -88 -46 -152 -42
-65 5 -65 5 -26 -8 72 -22 114 -17 198 26 74 37 116 72 117 96 0 10 34 27 158
81 19 8 31 10 28 5 -3 -5 -19 -15 -36 -22 -17 -7 -33 -22 -36 -35 -3 -13 -29
-39 -58 -58 -51 -34 -133 -123 -103 -111 8 3 29 23 46 44 20 25 58 52 107 77
72 35 82 37 163 36 53 -1 103 -7 131 -18 25 -9 54 -19 65 -21 20 -5 20 -5 0
11 -41 33 -123 48 -232 42 -57 -2 -101 -1 -98 3 16 25 190 41 290 27 l50 -7
-35 19 c-28 16 -55 20 -133 21 -54 0 -96 4 -93 9 8 13 -132 -27 -194 -56 -30
-13 -73 -31 -95 -38 -22 -7 -48 -16 -57 -20 -11 -4 -18 -3 -18 3 0 18 180 101
255 118 39 8 92 22 119 31 39 13 75 15 184 10 83 -4 132 -3 126 3 -14 14 -204
40 -293 40 -85 0 -116 14 -55 26 90 17 403 -17 424 -46 3 -4 30 -15 60 -25 30
-10 60 -21 65 -25 6 -4 35 -15 65 -25 30 -10 62 -20 70 -23 13 -5 13 -3 2 10
-7 9 -59 33 -115 54 -133 48 -168 67 -196 105 -29 39 -23 45 20 21 19 -11 57
-27 84 -36 28 -9 81 -32 120 -50 38 -19 72 -33 74 -30 2 2 -6 15 -19 29 -33
35 -18 31 66 -15 79 -43 93 -48 74 -25 -18 22 54 8 109 -22 24 -13 57 -23 72
-23 36 0 75 -15 122 -47 45 -31 43 -49 -4 -45 -27 3 -42 -3 -65 -26 -17 -16
-28 -34 -26 -40 3 -9 -24 -12 -95 -12 -116 0 -159 -16 -215 -78 -47 -52 -58
-90 -32 -109 10 -8 79 -44 153 -79 l133 -66 -5 -33 c-14 -87 -76 -162 -188
-228 -87 -51 -157 -71 -225 -62 -30 3 -54 10 -54 15 0 18 74 128 112 167 26
27 36 43 27 43 -22 0 -83 -68 -112 -125 -14 -27 -32 -59 -40 -70 -14 -18 -13
-21 15 -32 17 -7 61 -13 99 -13 l69 0 0 -29 c0 -45 49 -190 71 -212 17 -17 28
-19 67 -14 26 4 63 12 82 18 19 7 61 12 93 12 l58 0 -6 -30 -5 -30 30 35 c43
50 87 146 106 229 14 63 19 72 43 78 74 17 126 89 136 186 8 76 14 76 39 3 19
-58 19 -59 6 -51 -13 8 -13 10 6 -77 18 -88 12 -158 -15 -158 -13 0 -18 7 -17
23 1 14 7 22 19 21 20 -2 17 12 -17 86 l-20 45 -7 -135 c-6 -135 -19 -194 -63
-278 -22 -42 -20 -63 3 -35 l18 21 16 -28 c21 -34 22 -54 3 -47 -17 7 -10 -23
23 -93 11 -25 20 -49 20 -55 0 -5 -17 -22 -38 -36 -27 -19 -40 -37 -44 -60 -4
-19 -9 -47 -12 -64 l-6 -30 20 35 c56 101 182 161 274 131 45 -15 67 -50 74
-115 7 -70 -13 -111 -88 -180 -33 -30 -59 -62 -59 -70 0 -9 -6 -16 -12 -16 -9
0 -10 -3 -2 -8 6 -4 14 -14 17 -22 3 -9 6 -4 6 12 1 19 15 39 51 70 50 42 130
146 130 167 0 31 88 -10 112 -51 8 -14 13 -59 13 -118 0 -85 -3 -99 -26 -135
-15 -22 -34 -47 -43 -54 -15 -13 -16 -11 -10 26 12 76 -37 137 -111 137 -47 0
-62 -17 -70 -77 -4 -29 -18 -89 -31 -135 -13 -45 -24 -88 -24 -96 0 -7 -34
-30 -76 -52 -41 -21 -84 -47 -94 -56 -11 -10 -21 -18 -23 -18 -3 0 -58 -31
-123 -70 -65 -38 -120 -67 -122 -65 -7 7 47 62 146 147 51 44 98 90 104 103 8
17 6 52 -5 132 -9 60 -19 116 -22 125 -8 20 66 56 132 65 102 14 146 141 78
222 -45 53 -97 49 -167 -14 -21 -19 -42 -35 -47 -35 -8 0 -14 26 -28 109 -3
24 -2 31 7 26 8 -5 11 2 8 21 -2 16 -7 29 -13 29 -15 0 -145 86 -145 96 0 5 9
13 19 18 10 6 38 41 62 78 43 67 43 68 49 38 l6 -30 7 26 c10 38 21 169 14
169 -4 0 -13 -21 -21 -47 -25 -85 -70 -171 -112 -214 -31 -33 -46 -36 -64 -14
-7 8 -19 15 -28 15 -9 0 -60 25 -114 56 -54 31 -113 57 -132 59 -19 2 -44 9
-56 15 -32 17 -205 67 -280 80 -121 22 -171 40 -166 58 3 9 7 40 11 67 3 28
15 88 27 134 l21 84 -21 17 -21 17 24 11 c26 12 35 1 35 -45 0 -34 42 -89 83
-109 l32 -15 -37 33 c-36 32 -68 84 -68 110 0 7 21 32 48 56 43 40 95 65 189
93 18 5 35 15 39 21 19 30 -158 -28 -204 -67 -15 -13 -59 -34 -96 -46 -52 -18
-84 -38 -128 -78 -62 -57 -79 -87 -25 -48 44 34 92 57 117 57 25 0 25 -3 0
-76 -12 -32 -24 -94 -27 -136 l-6 -78 -61 0 c-42 0 -71 -6 -92 -19 -39 -24
-88 -86 -79 -101 10 -17 -77 -131 -97 -126 -18 4 -45 -20 -35 -31 4 -3 9 2 13
11 3 9 10 13 15 10 5 -2 -16 -37 -46 -77 -112 -147 -175 -237 -200 -287 -27
-52 -43 -61 -66 -33 -34 40 -144 56 -219 30 -42 -15 -75 -62 -84 -121 -6 -37
-11 -45 -34 -51 -15 -3 -37 -16 -49 -27 -31 -29 -39 -16 -19 26 9 19 16 49 16
68 0 18 9 67 20 108 11 41 20 89 20 105 0 17 7 52 15 78 8 26 10 45 5 42 -12
-8 -93 -133 -121 -187 -32 -63 -33 -34 -4 83 62 246 127 440 189 568 32 68 32
70 0 40 -64 -60 -195 -265 -139 -219 9 7 18 11 20 8 3 -3 -8 -47 -25 -99 -16
-52 -30 -99 -30 -106 0 -6 -4 -15 -10 -18 -6 -4 -10 35 -10 110 0 67 4 114 9
111 5 -4 20 27 34 68 14 41 51 135 83 210 48 114 61 136 83 141 31 8 105 61
151 110 l35 37 -30 -15 c-16 -8 -47 -29 -69 -46 -34 -28 -76 -41 -76 -25 0 18
37 64 56 68 23 6 177 127 170 133 -7 7 -86 -37 -86 -48 0 -24 -59 -59 -61 -36
0 7 -5 2 -11 -11 -16 -33 -42 -23 -48 18 -5 34 -7 35 -51 38 -51 3 -68 -12
-83 -73 -7 -29 -8 -29 -23 -10 -8 11 -21 33 -27 48 l-13 28 -16 -24 c-10 -15
-12 -29 -6 -38 14 -22 11 -33 -5 -19 -12 9 -18 4 -35 -29 -21 -39 -21 -54 -21
-633 l0 -592 52 -93 52 -94 11 45 c14 54 26 70 66 86 41 18 46 7 15 -34 -32
-42 -32 -55 -4 -109 25 -50 35 -37 15 21 -18 51 -12 59 19 24 l24 -27 -15 30
c-13 27 -20 65 -12 65 2 0 54 -50 115 -110 109 -108 122 -118 102 -80 -15 28
18 31 101 8 95 -25 114 -35 99 -53 -6 -7 -14 -39 -17 -70 -3 -30 -9 -57 -13
-60 -3 -2 -30 8 -59 21 -33 16 -62 23 -76 20 -25 -6 -49 20 -61 68 -14 56 -87
82 -150 54 -21 -10 -28 -10 -31 -1 -3 7 -16 27 -31 46 -15 19 -32 43 -39 53
-10 17 -12 15 -12 -16 -1 -29 9 -47 56 -102 32 -37 61 -67 64 -67 4 -1 9 12
12 28 7 33 28 44 60 32 15 -6 33 -33 57 -87 48 -112 91 -177 105 -162 5 5 -20
90 -35 117 -6 12 -7 21 -2 21 4 0 66 -36 138 -81 167 -105 270 -163 369 -211
44 -21 98 -48 120 -60 49 -27 202 -38 240 -18 17 9 28 9 43 1 26 -14 147 -14
231 0 48 7 68 16 83 34 23 30 38 32 38 6 0 -14 6 -17 25 -13 22 4 25 9 25 49
0 53 19 74 112 123 35 18 152 86 260 152 109 65 206 118 216 118 23 0 129 63
188 112 26 21 52 42 58 46 17 11 50 62 81 122 25 50 27 61 23 140 -3 48 -10
96 -17 107 -8 15 -11 171 -11 535 -1 391 -4 518 -13 535 -12 21 -91 74 -297
196 -47 27 -128 76 -180 108 -82 50 -95 55 -105 42 -18 -25 -25 -2 -14 46 8
35 7 47 -6 61 -8 9 -15 26 -15 39 0 49 -27 89 -78 115 -108 55 -153 55 -212 0
l-25 -23 -125 44 c-86 30 -127 40 -132 32 -5 -8 -14 -7 -35 2 -109 51 -253 79
-253 49z m760 -116 c25 -18 63 -82 55 -91 -7 -6 -75 32 -75 42 0 5 10 5 23 1
22 -7 22 -7 3 15 l-19 21 -22 -20 c-12 -11 -28 -20 -37 -20 -22 0 -88 29 -88
38 0 5 15 16 33 25 38 20 91 15 127 -11z m60 -264 c11 -18 20 -41 20 -51 0
-17 -4 -16 -31 7 -17 14 -35 26 -40 26 -13 0 -11 24 3 38 18 18 27 15 48 -20z
m-75 -46 c17 -8 38 -21 47 -30 17 -14 17 -16 0 -41 -10 -14 -26 -47 -36 -74
-10 -26 -24 -54 -32 -61 -8 -8 -14 -21 -14 -28 0 -7 -7 -22 -15 -32 -15 -19
-16 -19 -42 6 -16 14 -75 49 -133 77 -131 63 -143 82 -94 139 21 25 46 42 66
46 18 4 51 11 73 15 52 11 142 2 180 -17z m188 14 c22 -17 22 -24 0 -28 -16
-3 80 -71 172 -122 17 -9 66 -39 110 -67 44 -27 103 -63 131 -80 l51 -29 6
-472 c4 -275 3 -476 -2 -481 -19 -19 -48 3 -55 42 -3 21 -15 50 -26 64 -36 46
-82 53 -228 35 -20 -3 -26 5 -43 56 -21 61 -19 77 5 56 35 -29 34 -1 -2 48
l-40 52 15 43 c8 23 17 75 20 115 3 39 9 72 14 72 7 0 29 -86 29 -115 0 -8 4
-15 9 -15 14 0 24 100 25 250 1 123 -1 139 -22 178 -27 50 -23 62 12 38 14 -9
28 -16 31 -16 10 0 -17 44 -71 116 -30 39 -54 74 -54 78 0 4 23 4 50 0 29 -4
50 -3 50 3 0 11 -59 33 -90 33 -14 0 -35 14 -55 38 -18 21 -49 46 -69 57 -36
19 -48 49 -23 58 20 9 31 7 50 -7z m-23 -104 l54 -49 -37 -12 c-41 -14 -52
-37 -13 -27 13 3 31 8 39 12 11 4 19 -8 31 -41 l15 -47 -39 7 c-53 9 -53 -11
-1 -25 l39 -10 -6 -48 c-2 -26 -6 -49 -8 -51 -2 -2 -14 10 -28 25 -34 40 -43
24 -11 -21 32 -48 32 -66 -4 -104 -64 -68 -151 -25 -212 103 -16 34 -29 67
-29 73 0 7 19 32 43 55 52 53 101 148 95 183 -8 37 11 31 72 -23z m-1843 -157
c7 -21 2 -25 -24 -19 -33 9 -38 34 -7 34 13 0 27 -7 31 -15z m1991 -29 c5 -17
7 -33 5 -36 -8 -9 -51 53 -46 66 8 21 32 4 41 -30z m-2024 -10 c20 8 21 -12 1
-50 -8 -15 -15 -35 -15 -42 0 -17 -32 -18 -48 -2 -28 28 3 123 33 98 7 -6 20
-8 29 -4z m2402 -7 c12 -20 16 -149 5 -149 -6 0 -11 21 -11 48 0 26 -4 62 -9
80 -9 31 0 44 15 21z m-732 -82 c15 -37 15 -38 -8 -47 -13 -5 -27 -14 -31 -19
-20 -33 -39 8 -23 47 12 27 39 64 44 60 1 -2 9 -20 18 -41z m-1785 7 c4 -24
30 -54 48 -54 7 0 13 -2 13 -4 0 -11 -92 -196 -98 -196 -7 0 -4 246 4 268 6
19 28 9 33 -14z m-62 -58 c-1 -31 -6 -51 -11 -46 -8 8 0 100 9 100 2 0 2 -24
2 -54z m1897 -73 c70 -65 72 -75 35 -193 -35 -110 -41 -117 -101 -122 -29 -2
-54 -4 -55 -3 -2 1 6 42 17 91 11 49 23 133 26 187 4 53 9 97 12 97 2 0 32
-26 66 -57z m-117 -65 c-4 -64 -15 -134 -30 -183 l-24 -79 -64 -13 c-84 -16
-89 -16 -89 1 0 13 -41 151 -57 192 -2 6 8 14 24 18 37 9 149 84 193 129 19
20 39 36 44 36 5 1 6 -43 3 -101z m-1748 -93 c0 -11 -11 -42 -24 -70 l-23 -50
-1 88 -1 88 25 -18 c13 -10 24 -27 24 -38z m1311 -211 c85 -20 169 -45 186
-55 17 -11 45 -19 62 -19 21 0 83 -30 194 -96 90 -54 175 -103 190 -111 15 -8
30 -18 32 -22 3 -4 12 -59 20 -120 14 -106 14 -117 -5 -189 -21 -85 -34 -107
-26 -47 4 34 -19 305 -28 313 -1 2 -69 23 -151 48 -82 25 -171 52 -198 60 -26
8 -50 13 -52 11 -2 -1 17 -65 41 -141 25 -76 66 -206 91 -290 25 -83 51 -156
58 -162 13 -13 277 -106 283 -100 3 2 -3 46 -12 97 -15 91 -14 104 14 111 11
2 18 -24 32 -117 9 -66 15 -123 12 -128 -2 -4 -37 -35 -76 -68 -40 -33 -160
-147 -267 -253 l-195 -193 -165 18 c-189 20 -256 31 -360 60 -85 23 -235 98
-349 174 l-76 52 3 59 c4 85 9 104 28 97 13 -5 15 -18 12 -66 l-4 -60 230 7
c127 4 232 9 234 10 1 2 -22 45 -51 97 -113 198 -232 405 -251 441 -12 21 -23
38 -26 38 -3 0 -27 -75 -54 -165 -47 -158 -67 -194 -74 -133 -2 15 8 59 21
100 44 129 60 188 54 195 -3 3 -29 -15 -58 -41 -45 -41 -89 -60 -89 -38 1 15
48 51 103 78 31 16 57 31 57 35 0 3 -27 15 -60 26 -68 22 -65 24 -104 -55 -23
-44 -30 -51 -42 -42 -7 7 -14 16 -14 21 0 14 115 181 199 289 45 58 115 148
155 200 95 123 101 128 161 132 54 3 77 -1 315 -58z m1245 12 c2 -20 0 -38 -6
-41 -5 -4 -9 14 -9 41 0 54 10 53 15 0z m-870 -304 c28 -8 59 -21 70 -29 18
-12 18 -13 -8 -13 -39 0 -92 -24 -110 -50 -14 -21 -15 -19 -39 42 -14 35 -23
66 -21 71 5 8 32 3 108 -21z m218 -74 c13 -7 15 -13 7 -28 -17 -31 -29 -33
-40 -5 -5 14 -17 28 -25 31 -8 4 -15 10 -15 15 0 10 43 2 73 -13z m-87 -14
c32 -22 57 -69 49 -95 -7 -23 -47 -41 -69 -33 -8 3 -21 24 -29 47 -14 42 -24
52 -44 39 -8 -5 -8 -19 2 -57 10 -42 16 -50 36 -51 37 -2 79 -22 79 -39 0 -11
-7 -13 -30 -9 -19 4 -36 1 -46 -7 -14 -12 -19 -10 -33 9 -9 13 -28 38 -43 57
-37 43 -40 116 -6 139 29 21 102 20 134 0z m411 -68 c23 -20 28 -32 28 -70 0
-28 -6 -51 -16 -61 -9 -9 -56 -31 -105 -49 -49 -18 -97 -37 -106 -41 -27 -11
-23 11 16 90 39 82 104 149 148 154 4 1 20 -10 35 -23z m-309 -11 c1 -13 3
-28 4 -34 2 -5 -1 -11 -7 -12 -5 -2 -11 13 -13 34 -2 20 1 37 5 37 5 0 10 -11
11 -25z m-1898 -30 c0 -34 -32 -163 -45 -185 -15 -24 -25 6 -25 76 0 66 3 80
26 110 33 43 44 43 44 -1z m597 -23 c10 -6 9 -13 -4 -31 -13 -20 -17 -21 -24
-8 -9 15 -2 47 10 47 3 0 12 -4 18 -8z m1290 -51 c40 -59 27 -190 -20 -199
-27 -5 -83 35 -101 71 -10 23 -13 43 -7 63 6 25 12 29 42 29 29 0 36 -5 52
-37 9 -21 20 -38 23 -38 10 0 -8 64 -27 96 -10 17 -19 37 -19 43 0 23 34 6 57
-28z m-1512 -10 c66 -32 101 -64 140 -131 l26 -45 -3 40 c-3 35 0 40 24 49 39
14 44 2 23 -57 -26 -75 -30 -77 -74 -30 -22 23 -53 44 -70 48 -46 10 -99 -11
-117 -47 -21 -41 -15 -130 11 -158 29 -32 10 -35 -39 -6 -56 33 -131 118 -152
173 -23 59 -12 127 26 165 40 40 120 40 205 -1z m1321 -27 c13 -14 24 -36 24
-50 0 -34 24 -77 59 -107 41 -34 82 -42 120 -23 33 17 36 15 45 -29 11 -57 -2
-61 -99 -31 -54 17 -96 37 -109 51 -13 14 -33 59 -45 102 -12 43 -24 86 -27
96 -7 24 5 21 32 -9z m-922 -100 c28 -50 26 -70 -4 -54 -10 5 -30 10 -44 10
-30 0 -33 15 -11 66 17 42 25 39 59 -22z m1651 -10 c9 -10 14 -25 12 -36 -3
-10 -1 -16 4 -12 12 7 11 -28 -2 -63 -14 -37 -52 -77 -112 -115 -52 -33 -68
-32 -44 5 8 13 25 57 37 98 41 141 40 139 65 139 13 0 31 -7 40 -16z m-1976
-39 c16 -8 45 -33 64 -55 37 -44 102 -158 94 -166 -3 -3 -40 6 -83 20 -44 14
-91 28 -107 32 -63 15 -92 119 -45 164 26 24 40 25 77 5z m322 -42 c17 -10 33
-29 36 -43 4 -14 19 -37 35 -52 23 -21 28 -35 28 -71 0 -133 -130 -115 -190
26 -21 48 -21 51 -5 93 15 40 36 63 58 64 5 0 22 -8 38 -17z m-68 -238 c11
-14 35 -34 54 -43 l36 -17 -69 -6 c-38 -4 -76 -3 -85 2 -25 13 -31 87 -11 115
l17 24 20 -24 c11 -14 28 -36 38 -51z m252 2 c15 -27 24 -52 20 -55 -4 -4 -39
-8 -78 -9 l-70 -2 35 37 c20 20 39 50 42 66 8 33 14 29 51 -37z"/>
<path d="M1863 2337 c36 -29 238 -50 252 -26 11 16 -3 23 -19 10 -8 -7 -17 -8
-20 -3 -3 5 -36 12 -73 15 -37 4 -88 9 -113 13 -41 5 -43 4 -27 -9z"/>
<path d="M1764 2289 c-4 -7 -1 -10 7 -7 8 3 43 -6 79 -19 36 -12 66 -23 67
-23 1 0 11 -16 23 -36 12 -19 24 -33 27 -30 3 2 -10 24 -28 48 -26 35 -44 47
-88 61 -65 20 -77 21 -87 6z"/>
<path d="M1973 2238 c16 -10 85 -10 91 0 2 4 -19 8 -49 8 -29 -1 -48 -4 -42
-8z"/>
<path d="M2430 2185 c0 -4 13 -29 30 -54 43 -67 60 -114 49 -132 -5 -8 -6 -44
-2 -84 4 -38 7 -80 6 -92 -1 -36 11 -27 37 23 12 26 42 74 64 108 62 91 62 90
38 77 -12 -6 -40 -36 -64 -66 -23 -30 -46 -55 -50 -55 -5 0 -7 33 -6 73 2 63
-1 79 -24 118 -26 44 -78 100 -78 84z"/>
<path d="M2656 1961 c-28 -62 -80 -138 -123 -178 -16 -16 -23 -33 -23 -61 0
-21 -8 -64 -19 -95 -20 -61 -14 -63 33 -8 16 20 59 66 95 102 36 36 73 74 81
84 24 29 -69 -33 -115 -76 l-40 -39 -3 27 c-2 16 5 36 17 52 73 90 103 136
121 182 30 75 9 83 -24 10z"/>
<path d="M2675 1737 c-22 -29 -86 -99 -143 -158 -89 -92 -100 -108 -87 -119
13 -11 22 -8 53 14 20 15 76 55 124 89 48 33 86 63 83 65 -2 2 -31 -10 -64
-27 -63 -32 -75 -31 -41 4 56 58 129 169 118 180 -2 1 -21 -20 -43 -48z"/>
<path d="M2684 1578 c-104 -79 -214 -171 -214 -178 0 -5 28 4 63 20 34 15 84
31 110 35 73 11 68 33 -6 27 -14 -2 -16 2 -7 18 5 10 18 25 28 32 22 17 67 68
60 68 -3 0 -18 -10 -34 -22z"/>
<path d="M2595 1409 c-100 -33 -122 -47 -87 -55 13 -4 22 -14 22 -25 0 -12 9
-21 28 -25 48 -10 106 -38 129 -62 25 -27 39 -16 14 13 -15 18 -99 64 -143 79
-41 13 -14 38 60 56 29 7 62 20 75 31 31 26 10 23 -98 -12z"/>
<path d="M2111 2007 c18 -26 38 -52 44 -56 22 -18 76 -30 97 -22 18 6 12 9
-27 13 -45 5 -55 12 -99 60 l-48 53 33 -48z"/>
<path d="M1803 1665 c0 -38 2 -53 4 -32 2 20 2 52 0 70 -2 17 -4 1 -4 -38z"/>
<path d="M1266 1531 c6 -6 69 -34 140 -61 71 -27 167 -65 214 -85 92 -40 126
-52 324 -115 71 -22 131 -39 133 -36 3 2 -17 17 -44 32 -26 15 -68 40 -93 55
-70 44 -192 97 -257 113 -159 39 -390 97 -408 102 -15 5 -17 3 -9 -5z m494
-144 c25 -7 54 -18 65 -24 19 -12 19 -12 -6 -13 -33 0 -126 28 -134 40 -8 13
20 12 75 -3z"/>
<path d="M1197 1473 c-14 -26 -39 -82 -57 -123 -66 -154 -114 -256 -132 -282
-11 -16 -15 -28 -9 -28 6 0 68 24 138 54 71 30 220 91 333 136 113 45 206 83
208 84 1 2 -91 43 -205 91 -114 48 -218 94 -230 102 -21 14 -23 12 -46 -34z
m91 -25 c16 -16 -23 -58 -55 -58 -24 0 -30 20 -17 54 7 19 55 21 72 4z m135
-66 c33 -32 43 -63 27 -92 -37 -69 -170 -23 -170 60 0 26 20 52 50 63 25 10
64 -3 93 -31z m-165 -34 c18 -18 15 -46 -9 -79 -22 -32 -8 -40 22 -13 21 19
39 11 39 -16 0 -12 -13 -26 -31 -36 -25 -13 -36 -13 -59 -4 -28 12 -44 35 -35
50 3 4 -2 13 -10 20 -20 17 -19 24 11 59 27 33 52 39 72 19z m311 -15 l34 -16
-38 -18 c-49 -24 -90 -25 -81 -3 3 9 6 27 6 40 0 28 12 27 79 -3z m-401 -129
c12 -19 20 -39 17 -44 -13 -22 -105 -58 -105 -42 0 16 51 122 58 122 4 0 17
-16 30 -36z"/>
<path d="M1334 1365 c-9 -22 1 -41 30 -60 47 -31 62 4 21 49 -27 29 -43 33
-51 11z"/>
<path d="M1212 1300 c-19 -31 -13 -47 8 -21 11 13 20 27 20 32 0 16 -15 10
-28 -11z"/>
<path d="M1096 1418 c-30 -40 -85 -109 -121 -153 -64 -77 -139 -185 -133 -189
2 -1 26 -12 55 -23 l51 -21 43 86 c87 179 172 372 164 372 -2 0 -29 -33 -59
-72z m-106 -216 c0 -31 -50 -92 -74 -92 -25 0 -19 44 9 70 29 27 32 21 9 -15
-10 -15 -12 -25 -6 -25 16 0 35 39 28 57 -7 18 12 46 25 37 5 -3 9 -17 9 -32z"/>
<path d="M1565 1218 c-71 -28 -200 -80 -285 -115 -85 -35 -181 -74 -212 -86
-32 -12 -58 -25 -58 -29 0 -4 26 -51 58 -105 33 -54 101 -172 152 -263 51 -91
101 -177 112 -192 l18 -26 268 134 c147 74 270 135 274 136 15 6 -176 598
-192 597 -3 0 -63 -23 -135 -51z m147 -28 c9 -22 17 -43 18 -45 0 -3 7 -20 16
-40 19 -45 7 -46 -79 -5 -71 33 -85 37 -68 16 13 -16 -4 -26 -43 -26 -37 0
-106 -56 -106 -85 0 -24 -2 -25 -75 -25 -49 0 -87 -6 -106 -15 -24 -13 -37
-14 -70 -5 -51 14 -60 8 -15 -8 l34 -13 -20 -41 c-19 -39 -19 -44 -4 -74 21
-46 58 -69 86 -54 31 16 34 8 16 -44 -9 -26 -16 -63 -16 -82 0 -19 -4 -33 -9
-30 -5 3 -30 43 -56 89 -27 45 -70 119 -96 165 -50 84 -57 102 -39 102 6 0 10
6 10 14 0 8 12 17 27 21 24 6 84 30 268 110 17 7 53 20 80 30 28 9 63 24 79
33 42 22 118 51 136 51 8 1 23 -17 32 -39z m-99 -134 c41 -17 59 -38 97 -111
66 -132 10 -259 -101 -226 -45 14 -72 42 -109 119 -48 100 -36 182 32 215 40
20 41 20 81 3z m106 0 c33 -17 65 -62 58 -81 -3 -7 -2 -16 3 -21 5 -5 11 -20
14 -34 3 -14 17 -65 31 -115 30 -109 30 -107 2 -121 -311 -160 -441 -224 -455
-224 -18 0 -74 79 -66 92 3 4 14 4 24 -2 35 -19 199 60 224 108 13 24 19 27
76 27 61 0 63 1 100 42 53 60 63 141 24 198 -8 11 -14 27 -14 35 0 9 -8 25
-18 36 -30 33 -53 74 -42 74 6 0 24 -7 39 -14z m-305 -139 c26 -35 25 -96 -3
-182 -10 -33 -17 -62 -16 -63 2 -2 24 10 49 27 51 36 62 38 69 14 2 -10 8 -26
12 -36 6 -14 -9 -25 -90 -63 -106 -51 -108 -50 -119 16 -4 27 1 54 18 96 34
84 41 127 22 143 -21 17 -50 10 -54 -14 -4 -21 -40 -65 -54 -65 -4 0 -8 6 -8
14 0 7 -7 19 -15 26 -23 19 -18 36 24 80 37 39 41 41 91 38 45 -3 56 -7 74
-31z"/>
<path d="M1546 981 c-16 -17 -16 -25 -6 -58 18 -55 60 -131 77 -137 21 -9 53
12 53 34 0 29 -38 125 -61 154 -24 31 -40 33 -63 7z"/>
<path d="M1659 504 c-148 -74 -269 -138 -269 -143 0 -4 21 -23 48 -41 26 -19
105 -79 176 -133 l128 -100 95 94 c53 52 113 113 135 136 22 24 85 82 139 129
94 83 108 104 71 104 -9 1 -70 20 -136 44 l-119 44 -268 -134z m381 56 c47
-16 86 -30 87 -30 24 0 -91 -116 -126 -128 -5 -2 -12 11 -16 27 -14 66 -97 91
-164 50 -28 -17 -39 -19 -58 -10 -14 6 -23 17 -21 24 6 17 158 96 188 96 14 1
63 -12 110 -29z m-109 -100 c28 -16 24 -64 -11 -125 -33 -58 -66 -85 -104 -85
-55 0 -72 59 -36 129 37 74 100 108 151 81z m-190 -10 c24 -13 25 -61 2 -82
-10 -9 -40 -27 -68 -41 l-50 -26 53 -1 c45 0 52 -3 52 -20 0 -11 -4 -20 -10
-21 -5 0 -35 -1 -66 -1 -100 -1 -110 45 -18 89 65 31 84 50 59 59 -10 4 -25 2
-34 -4 -29 -22 -42 -25 -54 -13 -8 8 -9 16 -1 29 24 37 93 54 135 32z m-167
-56 c10 -26 7 -37 -18 -68 l-24 -29 -31 22 c-41 29 -39 46 7 70 46 25 58 26
66 5z m208 -170 l31 -16 -36 -36 -36 -36 -38 30 c-45 37 -52 54 -21 54 13 0
30 5 38 10 20 13 26 13 62 -6z"/>
<path d="M1840 389 c-24 -33 -32 -89 -13 -96 12 -4 73 91 73 115 0 23 -39 12
-60 -19z"/>
<path d="M1025 330 l-160 -5 90 -49 c50 -27 104 -57 120 -67 101 -59 210 -87
460 -118 132 -17 170 -19 154 -8 -2 1 -67 50 -144 109 -77 58 -156 115 -175
127 -38 23 -22 22 -345 11z m66 -40 c12 0 12 -27 0 -35 -11 -6 -61 15 -61 26
0 10 22 18 38 13 8 -2 18 -4 23 -4z m182 -16 c50 -19 67 -30 63 -41 -5 -12 0
-13 23 -8 33 7 71 -8 71 -29 0 -21 -36 -47 -66 -48 -47 -1 -142 22 -154 38
-10 12 -8 14 14 14 15 0 35 -4 44 -9 26 -13 131 -25 112 -12 -8 6 -34 13 -57
17 -32 5 -43 11 -43 24 0 19 -46 41 -84 39 -17 0 -15 -3 12 -16 39 -20 43 -38
5 -28 -16 4 -43 11 -62 14 -32 6 -57 31 -31 31 7 0 23 9 37 20 32 25 34 25
116 -6z m249 -114 l33 -29 -40 0 c-59 1 -74 9 -64 37 11 30 32 28 71 -8z"/>
<path d="M2377 947 c-42 -28 -77 -56 -77 -60 0 -11 93 41 133 75 58 48 22 39
-56 -15z"/>
<path d="M2046 861 c-9 -14 4 -40 26 -52 30 -16 33 -4 8 30 -23 34 -26 35 -34
22z"/>
<path d="M455 903 c-48 -48 -48 -176 0 -185 l22 -5 -18 43 c-18 39 -17 74 0
74 4 0 18 -11 31 -25 13 -14 29 -25 36 -25 7 0 -3 17 -21 38 -19 20 -35 47
-35 60 0 21 4 22 83 23 96 1 79 17 -20 18 -45 1 -66 -4 -78 -16z"/>
<path d="M2642 674 c-18 -31 -26 -51 -17 -44 22 18 57 78 53 90 -2 6 -18 -15
-36 -46z"/>
<path d="M626 686 c7 -19 55 -54 123 -90 101 -54 42 -5 -116 97 -9 5 -11 3 -7
-7z"/>
<path d="M967 663 c-12 -12 -7 -50 8 -63 8 -7 15 -20 15 -29 0 -10 11 -28 25
-41 20 -19 27 -21 40 -10 26 21 18 59 -15 78 -17 9 -28 22 -26 29 3 6 -3 18
-13 27 -19 18 -25 19 -34 9z"/>
<path d="M1233 2621 c45 -13 138 -64 171 -95 22 -20 44 -36 48 -36 17 0 6 19
-38 63 -57 58 -46 66 65 50 85 -13 135 -1 55 13 -47 7 -327 13 -301 5z"/>
<path d="M1742 2610 c14 -23 117 -85 126 -76 7 8 -21 30 -70 56 -20 11 -39 24
-43 30 -3 5 -10 10 -16 10 -5 0 -4 -9 3 -20z"/>
<path d="M1870 2580 c12 -23 58 -55 66 -47 6 6 -57 67 -69 67 -4 0 -3 -9 3
-20z"/>
<path d="M1531 2552 c25 -10 63 -22 85 -25 l39 -6 -35 19 c-19 10 -58 21 -85
24 l-50 7 46 -19z"/>
<path d="M1470 2539 c0 -14 68 -41 91 -37 13 2 0 11 -36 25 -30 11 -55 17 -55
12z"/>
<path d="M2039 2513 c-33 -40 -41 -53 -33 -53 5 0 22 16 37 35 28 35 24 51 -4
18z"/>
<path d="M1340 2513 c0 -11 84 -63 101 -63 8 0 1 9 -16 21 -47 31 -85 50 -85
42z"/>
<path d="M1050 2483 c-51 -16 -120 -46 -117 -50 3 -2 29 6 58 18 47 18 69 20
166 17 111 -4 114 -5 210 -53 54 -26 112 -57 128 -69 17 -11 31 -20 33 -18 1
1 2 -1 3 -5 1 -11 -83 -42 -114 -42 -34 -1 -32 22 1 27 12 2 22 6 22 10 -1 4
-36 30 -80 59 -64 41 -94 53 -150 63 -71 12 -120 8 -65 -5 59 -14 59 -12 36
-51 -12 -19 -21 -43 -21 -52 0 -10 -13 -22 -30 -29 -16 -6 -33 -19 -36 -27 -9
-24 24 -56 58 -56 24 0 28 4 28 26 0 17 4 24 13 21 39 -17 67 -33 67 -39 0 -8
-53 -25 -107 -33 -40 -6 -43 -5 -62 26 -17 28 -21 30 -27 15 -9 -24 -24 -1
-24 39 -1 26 -2 27 -11 12 -6 -10 -7 -31 -4 -47 6 -25 3 -30 -12 -30 -32 0
-137 -56 -152 -81 l-14 -23 27 17 c93 61 167 82 205 58 11 -7 7 -13 -20 -24
-32 -14 -112 -87 -95 -87 4 0 24 11 44 25 20 14 89 42 152 62 114 35 208 70
325 121 33 14 85 33 115 43 l55 17 -51 1 c-43 1 -73 12 -170 62 -66 33 -144
67 -174 75 -52 13 -178 18 -210 7z m244 -125 c14 -23 -2 -50 -38 -63 -22 -7
-30 -5 -48 13 -19 18 -20 25 -10 47 10 22 18 26 49 23 21 -2 41 -10 47 -20z
m83 -25 c8 -11 9 -23 1 -44 -17 -49 -39 -33 -43 31 -2 31 1 37 14 33 9 -3 21
-12 28 -20z m-69 -56 c4 -21 -25 -34 -40 -19 -8 8 -8 16 2 27 16 19 34 15 38
-8z m-155 -12 c7 -17 -8 -29 -28 -21 -17 6 -9 36 10 36 7 0 15 -7 18 -15z"/>
<path d="M1076 2420 c-49 -15 -133 -63 -146 -84 -11 -17 -10 -17 15 2 15 12
33 22 39 22 6 0 34 12 61 25 28 14 55 25 62 25 6 0 15 5 18 10 7 12 -9 12 -49
0z"/>
<path d="M384 2348 c-80 -83 -134 -151 -134 -170 0 -9 9 -26 20 -39 l19 -24 1
32 c0 45 30 93 58 93 12 0 21 3 21 8 -5 31 46 92 77 92 10 -1 43 -23 73 -51
l54 -50 -23 -31 c-21 -28 -19 -28 34 12 31 23 56 44 56 46 0 1 -15 0 -34 -3
-31 -5 -40 0 -90 47 -31 29 -54 55 -52 57 2 3 26 -7 52 -21 27 -14 62 -26 79
-25 26 0 24 2 -16 13 -47 12 -109 50 -109 67 0 23 -30 4 -86 -53z"/>
<path d="M952 2308 c-29 -22 -50 -43 -47 -46 2 -3 29 6 58 19 44 19 54 28 53
46 0 13 -3 23 -6 23 -3 0 -29 -19 -58 -42z"/>
<path d="M1565 2274 c-32 -16 -71 -54 -57 -54 5 0 17 9 27 20 10 11 36 23 57
26 20 4 35 10 32 15 -8 13 -25 11 -59 -7z"/>
<path d="M755 2257 c-11 -7 -22 -21 -23 -32 -3 -17 0 -16 23 9 29 32 30 40 0
23z"/>
<path d="M865 2239 c-12 -18 2 -21 57 -11 48 10 49 10 13 9 -22 0 -46 2 -52 6
-6 4 -15 2 -18 -4z"/>
<path d="M1329 2180 c-13 -11 -64 -49 -113 -83 -50 -35 -92 -69 -94 -76 -6
-17 29 5 135 83 44 33 86 69 92 78 14 23 10 23 -20 -2z"/>
<path d="M1480 2168 c-35 -10 -64 -28 -57 -35 2 -2 30 3 63 12 32 8 80 15 107
15 29 0 46 4 42 10 -8 13 -109 11 -155 -2z"/>
<path d="M726 2124 c-22 -8 -42 -17 -45 -20 -10 -9 52 8 79 22 33 17 15 16
-34 -2z"/>
<path d="M764 2102 c-79 -52 -162 -159 -177 -227 -6 -27 -5 -26 14 10 37 69
104 148 168 199 56 45 67 56 58 56 -2 0 -30 -17 -63 -38z"/>
<path d="M949 2130 c-38 -11 -187 -108 -237 -155 -56 -52 -107 -132 -108 -170
-1 -16 -5 -63 -9 -102 -4 -40 -4 -73 0 -73 5 0 23 11 41 25 18 14 35 25 38 25
2 0 4 -34 3 -75 -1 -58 3 -79 15 -91 22 -23 42 -13 61 30 10 20 24 52 33 71 9
19 22 35 29 35 7 0 18 20 25 45 16 58 40 80 41 39 0 -22 4 -17 13 21 7 28 18
60 24 73 7 12 10 22 6 22 -14 0 -134 -160 -134 -179 0 -7 -11 -27 -24 -44 -13
-18 -29 -51 -35 -74 -17 -63 -31 -52 -31 25 0 74 20 178 44 237 23 53 29 38
12 -28 -13 -51 -20 -114 -16 -162 2 -39 30 60 30 110 0 28 5 70 11 94 19 85
-13 61 -97 -72 -68 -109 -63 -102 -69 -95 -10 10 24 136 54 203 16 35 45 83
63 105 45 55 188 146 188 120 0 -6 -7 -10 -15 -10 -9 0 -18 -7 -21 -15 -4 -8
-11 -12 -18 -8 -7 4 -6 1 1 -9 11 -12 9 -18 -8 -34 -20 -18 -44 -54 -36 -54 7
0 160 171 156 174 -2 2 -16 0 -30 -4z"/>
<path d="M1119 2105 c-82 -24 -145 -54 -118 -55 9 0 36 7 59 15 49 17 50 17
50 7 0 -4 -12 -15 -27 -24 -25 -16 -26 -17 -7 -18 11 0 29 10 40 21 10 12 37
35 58 50 46 34 44 34 -55 4z"/>
<path d="M1286 2040 c-25 -27 -46 -55 -46 -62 0 -7 7 -1 16 12 10 14 33 42 53
63 19 20 33 37 29 37 -3 0 -26 -22 -52 -50z"/>
<path d="M529 2003 c-78 -84 -203 -263 -184 -263 3 0 29 26 59 57 53 56 83 68
53 21 -9 -12 -28 -66 -43 -118 -23 -80 -28 -114 -28 -220 -1 -69 3 -134 7
-145 8 -17 11 -14 27 25 11 28 20 39 23 30 3 -8 16 -46 28 -85 12 -38 31 -83
41 -100 10 -16 21 -38 24 -47 4 -10 10 -18 15 -18 5 0 3 14 -6 30 -17 33 -11
38 17 13 34 -31 28 -6 -23 93 -46 90 -51 107 -58 189 l-7 90 -17 -32 c-9 -18
-24 -58 -32 -89 -19 -75 -25 -78 -25 -13 1 75 33 214 74 316 l34 86 -21 18
c-21 16 -21 18 -5 50 10 19 36 60 59 92 23 31 40 59 37 62 -3 3 -25 -16 -49
-42z"/>
<path d="M1901 1980 c-72 -65 -144 -93 -228 -88 -39 2 -59 0 -54 -5 18 -18
110 -16 161 3 69 25 150 83 171 123 13 24 11 22 -50 -33z"/>
<path d="M700 1874 c-36 -87 -34 -126 2 -44 23 51 42 120 34 120 -2 0 -18 -34
-36 -76z"/>
<path d="M1026 1778 c-28 -48 -46 -93 -46 -111 1 -7 11 8 24 32 21 41 24 43
30 23 4 -12 4 -27 0 -34 -5 -9 -4 -10 3 -3 10 10 27 135 18 135 -2 0 -15 -19
-29 -42z"/>
<path d="M1182 1739 c-29 -44 -52 -85 -52 -92 0 -6 25 26 55 72 48 73 63 101
52 101 -2 0 -26 -36 -55 -81z"/>
<path d="M520 1807 c0 -1 -11 -47 -25 -102 -13 -54 -23 -101 -20 -103 2 -2 12
11 22 30 l18 33 7 -120 c6 -108 18 -189 31 -201 8 -8 15 171 7 181 -11 14 -21
105 -23 203 -1 45 -5 82 -9 82 -5 0 -8 -1 -8 -3z"/>
<path d="M2238 1716 c-22 -64 -22 -81 -2 -43 8 15 19 25 24 22 11 -7 12 18 2
52 -6 19 -10 14 -24 -31z"/>
<path d="M2317 1735 c-10 -21 -16 -40 -13 -42 7 -7 38 56 34 68 -2 6 -11 -6
-21 -26z"/>
<path d="M996 1583 c-3 -32 -2 -74 3 -93 6 -25 9 -28 10 -12 1 12 4 22 9 22 9
0 3 123 -8 133 -4 5 -11 -17 -14 -50z"/>
<path d="M585 1434 c-9 -83 -2 -192 15 -224 l13 -24 9 23 c4 12 6 27 3 32 -4
5 0 6 7 3 7 -3 27 -26 43 -51 37 -57 58 -72 83 -57 18 12 21 52 9 108 -6 28
-6 28 15 10 17 -16 16 -11 -8 40 l-29 58 -5 -53 -5 -54 -38 105 c-39 105 -64
156 -73 147 -9 -9 56 -190 90 -252 65 -118 55 -149 -12 -37 -46 75 -80 171
-89 244 -3 26 -9 48 -14 48 -4 0 -11 -30 -14 -66z"/>
<path d="M832 1395 c1 -55 3 -81 5 -57 2 23 7 42 9 42 3 0 14 -10 25 -22 18
-22 17 -21 -1 19 -11 23 -20 50 -21 60 0 10 -4 27 -9 38 -5 13 -8 -16 -8 -80z"/>
<path d="M336 1445 c-5 -22 -16 -74 -26 -115 -10 -41 -16 -77 -14 -79 2 -2 12
7 23 20 11 13 21 22 24 19 2 -3 0 -41 -4 -85 -11 -112 -11 -233 0 -239 5 -3
12 5 15 19 10 38 26 314 20 330 -3 8 -11 49 -18 92 -13 76 -13 77 -20 38z"/>
<path d="M2277 1353 c-9 -24 -19 -62 -22 -85 l-5 -43 11 35 c6 19 17 49 26 66
8 18 13 40 11 50 -2 14 -8 7 -21 -23z"/>
<path d="M2423 1165 c-18 -8 -33 -16 -33 -19 0 -9 37 -1 52 11 7 6 22 13 33
16 20 5 20 5 0 5 -11 1 -35 -5 -52 -13z"/>
<path d="M2502 1160 c-47 -11 -46 -15 1 -16 23 0 49 -2 57 -5 9 -2 15 2 15 11
0 18 -27 21 -73 10z"/>
<path d="M2565 1085 c-10 -19 -15 -38 -12 -41 3 -4 13 11 22 31 20 49 12 57
-10 10z"/>
<path d="M2621 1085 c-1 -11 -10 -35 -21 -52 -11 -18 -16 -33 -11 -33 13 0 43
69 38 88 -4 14 -5 13 -6 -3z"/>
<path d="M286 978 c-8 -70 -1 -132 14 -123 16 10 19 81 6 135 l-13 55 -7 -67z"/>
<path d="M2684 929 c-10 -12 -32 -28 -49 -35 l-30 -13 27 -1 c15 0 29 4 33 10
3 5 12 7 19 4 9 -3 18 6 24 25 13 36 3 40 -24 10z"/>
<path d="M445 435 c6 -27 54 -90 62 -81 2 2 -13 28 -33 57 -30 46 -35 49 -29
24z"/>
</g>
</svg>
